<svg width="64" height="64" viewBox="0 0 64 64" fill="none" xmlns="http://www.w3.org/2000/svg">
<path d="M2 51.61C2 52.185 2.65482 52.5147 3.11678 52.1724L32.7114 30.2407C32.8926 30.1064 32.998 29.8932 32.9946 29.6677L32.7329 12.3641C32.7243 11.7941 32.0743 11.4729 31.6162 11.8123L2.80914 33.1621C2.30016 33.5393 2 34.1354 2 34.7689V51.61Z" fill="url(#paint0_linear_60_22)"/>
<path d="M58 12.89C58 12.3985 57.6015 12 57.11 12H44.89C44.3985 12 44 12.3985 44 12.89V17.555C44 17.8351 44.1319 18.0989 44.356 18.267L56.72 27.54C57.2474 27.9355 58 27.5592 58 26.9V12.89Z" fill="url(#paint1_linear_60_22)"/>
<path d="M47.1236 22.5184L32.6122 11.3347C32.3571 11.1381 32.0009 11.1409 31.749 11.3414L20.7 20.1352C20.3441 20.4184 20.3486 20.9605 20.7091 21.2378L60.8732 52.1332C61.3335 52.4873 62 52.1592 62 51.5784V37.5485V34.8181C62 34.1931 61.7078 33.604 61.2103 33.2258L47.1236 22.5184Z" fill="url(#paint2_linear_60_22)"/>
<defs>
<linearGradient id="paint0_linear_60_22" x1="25.232" y1="26.5034" x2="-0.942335" y2="45.4718" gradientUnits="userSpaceOnUse">
<stop stop-color="#7E0F28"/>
<stop offset="1" stop-color="#CA2A4D"/>
</linearGradient>
<linearGradient id="paint1_linear_60_22" x1="50.9626" y1="28.0693" x2="50.9626" y2="12" gradientUnits="userSpaceOnUse">
<stop stop-color="#6C0F23"/>
<stop offset="1" stop-color="#CA2A4D"/>
</linearGradient>
<linearGradient id="paint2_linear_60_22" x1="62.8303" y1="42.8161" x2="29.309" y2="20.5246" gradientUnits="userSpaceOnUse">
<stop stop-color="#680F22"/>
<stop offset="1" stop-color="#CA2A4D"/>
</linearGradient>
</defs>
</svg>
