<svg width="78" height="78" viewBox="0 0 78 78" fill="none" xmlns="http://www.w3.org/2000/svg">
<path d="M2 62.2116C2 62.945 2.8397 63.3613 3.42342 62.9172L39.2938 35.6318C39.6837 35.3352 39.7592 34.7785 39.4623 34.3888L29.0343 20.7013C28.7387 20.3134 28.1853 20.237 27.7957 20.5304L2.35326 39.6903C2.13082 39.8578 2 40.1201 2 40.3986V62.2116Z" fill="url(#paint0_linear_48_48)"/>
<path d="M70 13.8866C70 13.397 69.603 13 69.1134 13H53.8866C53.397 13 53 13.397 53 13.8866V20.6417C53 20.9311 53.1412 21.2023 53.3783 21.3682L68.605 32.0238C69.1927 32.435 70 32.0146 70 31.2974V13.8866Z" fill="url(#paint1_linear_48_48)"/>
<path d="M57.3454 26.5993L38.806 12.4214C38.4823 12.1739 38.0315 12.1788 37.7133 12.4335L23.8819 23.5045C23.433 23.8637 23.4396 24.5486 23.8952 24.8993L74.5726 63.9014C75.1556 64.3502 76 63.9345 76 63.1988V45.5342V41.3701C76 41.0947 75.872 40.8349 75.6536 40.667L57.3454 26.5993Z" fill="url(#paint2_linear_48_48)"/>
<defs>
<linearGradient id="paint0_linear_48_48" x1="30.5219" y1="30.6748" x2="-2.19381" y2="53.7" gradientUnits="userSpaceOnUse">
<stop stop-color="white" stop-opacity="0.8"/>
<stop offset="1" stop-color="white"/>
</linearGradient>
<linearGradient id="paint1_linear_48_48" x1="53.0114" y1="28.6609" x2="60.6503" y2="12.5119" gradientUnits="userSpaceOnUse">
<stop offset="0.01" stop-color="white"/>
<stop offset="1" stop-color="white" stop-opacity="0.8"/>
</linearGradient>
<linearGradient id="paint2_linear_48_48" x1="39.7132" y1="26.9296" x2="76.9409" y2="53.5186" gradientUnits="userSpaceOnUse">
<stop stop-color="white"/>
<stop offset="0.99" stop-color="white" stop-opacity="0.8"/>
</linearGradient>
</defs>
</svg>
