<svg width="64" height="64" viewBox="0 0 64 64" fill="none" xmlns="http://www.w3.org/2000/svg">
<path d="M2 51.2092C2 51.9425 2.83956 52.3588 3.4233 51.915L31.5579 30.5215C31.9366 30.2336 32.0205 29.698 31.7481 29.308L24.029 18.2574C23.7404 17.8442 23.1659 17.7544 22.765 18.0597L2.34946 33.607C2.12926 33.7747 2 34.0356 2 34.3124V51.2092Z" fill="url(#paint0_linear_60_22)"/>
<path d="M57.0888 13.1573C57.0918 12.6654 56.694 12.2651 56.2021 12.2651H44.9928C44.5032 12.2651 44.1062 12.6621 44.1062 13.1518V17.3013C44.1062 17.579 44.2363 17.8407 44.4578 18.0083L55.5893 26.4324C56.1713 26.8728 57.0064 26.4607 57.0109 25.7309L57.0888 13.1573Z" fill="url(#paint1_linear_60_22)"/>
<path d="M46.9692 22.601L32.225 11.4159C31.9024 11.1712 31.4549 11.1761 31.1378 11.4279L20.1609 20.1436C19.8036 20.4273 19.8088 20.9714 20.1714 21.2482L60.4878 52.0276C61.0713 52.4731 61.9124 52.057 61.9124 51.3228V37.6472V34.4301C61.9124 34.1535 61.7833 33.8927 61.5633 33.725L46.9692 22.601Z" fill="url(#paint2_linear_60_22)"/>
<defs>
<linearGradient id="paint0_linear_60_22" x1="24.6942" y1="26.4907" x2="-1.33076" y2="44.8134" gradientUnits="userSpaceOnUse">
<stop stop-color="white" stop-opacity="0.8"/>
<stop offset="1" stop-color="white"/>
</linearGradient>
<linearGradient id="paint1_linear_60_22" x1="44.1149" y1="25.038" x2="50.6002" y2="12.1948" gradientUnits="userSpaceOnUse">
<stop offset="0.01" stop-color="white"/>
<stop offset="1" stop-color="white" stop-opacity="0.8"/>
</linearGradient>
<linearGradient id="paint2_linear_60_22" x1="32.8449" y1="22.8634" x2="62.5035" y2="44.2176" gradientUnits="userSpaceOnUse">
<stop stop-color="white"/>
<stop offset="0.99" stop-color="white" stop-opacity="0.8"/>
</linearGradient>
</defs>
</svg>
