<svg width="340" height="46" viewBox="0 0 340 46" fill="none" xmlns="http://www.w3.org/2000/svg">
<path d="M74.5293 7.62354H81.5121L87.5872 20.6307C89.02 23.1803 90.2572 25.8363 91.2881 28.5757C92.1689 25.8535 93.2423 23.1984 94.5002 20.6307L100.505 7.62354H107.488V37.1534H101.762V25.2008C101.762 23.3025 101.762 21.6854 101.762 20.4901C101.762 19.2949 101.762 18.0293 101.762 16.6231L92.4752 37.1534H89.6122L79.8362 16.6231C80.1854 17.792 80.1854 19.3805 80.1854 20.6307C80.1854 21.881 80.1854 23.3025 80.1854 25.2008V37.1534H74.5293V7.62354Z" fill="url(#paint0_linear_60_2)"/>
<path d="M115.868 36.1708C114.335 35.1116 113.088 33.6863 112.237 32.0226C111.276 30.2576 110.795 28.2692 110.84 26.2572C110.808 24.2244 111.289 22.2166 112.237 20.4216C113.19 18.6774 114.588 17.2211 116.287 16.203C118.028 15.191 120.002 14.6582 122.013 14.6582C124.023 14.6582 125.998 15.191 127.739 16.203C129.397 17.2272 130.748 18.6851 131.649 20.4216C132.609 22.2121 133.09 24.223 133.045 26.2572C133.118 26.9115 133.118 27.5717 133.045 28.2259H116.357C116.629 29.4779 117.289 30.6105 118.242 31.4601C119.226 32.266 120.465 32.69 121.733 32.6554C122.839 32.678 123.928 32.3855 124.876 31.8117C125.758 31.298 126.501 30.5736 127.04 29.7024L131.439 33.0069C130.463 34.4849 129.113 35.6741 127.529 36.4521C125.717 37.3089 123.735 37.7415 121.733 37.7176C119.676 37.7421 117.649 37.2077 115.868 36.1708ZM127.11 24.0073C126.793 22.7773 126.111 21.6737 125.155 20.8434C124.184 20.0067 122.942 19.5565 121.663 19.5779C120.42 19.5659 119.211 19.9883 118.242 20.7731C117.264 21.6023 116.599 22.7439 116.357 24.0073H127.11Z" fill="url(#paint1_linear_60_2)"/>
<path d="M135.699 7.69608C135.994 7.36146 136.362 7.09895 136.773 6.92842C137.184 6.75788 137.629 6.68379 138.073 6.71175C138.527 6.68812 138.98 6.76389 139.402 6.93383C139.824 7.10376 140.204 7.36383 140.517 7.69608C140.829 7.99474 141.077 8.35481 141.245 8.75394C141.413 9.15307 141.498 9.58274 141.494 10.0163C141.504 10.461 141.421 10.9029 141.253 11.3142C141.085 11.7255 140.834 12.0975 140.517 12.4068C140.204 12.7391 139.824 12.9991 139.402 13.1691C138.98 13.339 138.527 13.4148 138.073 13.3911C137.631 13.4003 137.192 13.3176 136.784 13.1482C136.375 12.9788 136.006 12.7264 135.699 12.4068C135.365 12.1064 135.099 11.7378 134.918 11.3255C134.738 10.9132 134.647 10.4669 134.651 10.0163C134.648 9.57609 134.739 9.14038 134.92 8.73962C135.101 8.33886 135.367 7.98272 135.699 7.69608ZM135.28 15.5707H140.936V37.1557H135.28V15.5707Z" fill="url(#paint2_linear_60_2)"/>
<path d="M144.288 6.3584H149.944V37.1538H144.288V6.3584Z" fill="url(#paint3_linear_60_2)"/>
<path d="M153.295 6.3584H158.952V37.1538H153.295V6.3584Z" fill="url(#paint4_linear_60_2)"/>
<path d="M166.842 36.1709C165.182 35.1574 163.811 33.7282 162.862 32.0226C161.934 30.2454 161.454 28.2653 161.466 26.2573C161.455 24.2183 161.96 22.2102 162.932 20.4216C163.885 18.6774 165.283 17.2211 166.982 16.2031C168.72 15.1841 170.697 14.6502 172.708 14.6563C174.721 14.6398 176.7 15.1744 178.434 16.2031C180.097 17.2435 181.467 18.6959 182.414 20.4216C183.343 22.224 183.822 24.2268 183.811 26.2573C183.883 26.9115 183.883 27.5717 183.811 28.2259H167.331C167.632 29.4662 168.288 30.5906 169.216 31.4602C170.207 32.2552 171.441 32.6779 172.708 32.6554C173.813 32.678 174.903 32.3855 175.85 31.8117C176.733 31.298 177.476 30.5736 178.015 29.7024L182.414 33.007C181.454 34.499 180.1 35.6921 178.504 36.4521C176.694 37.316 174.711 37.749 172.708 37.7177C170.653 37.722 168.632 37.189 166.842 36.1709ZM178.085 24.0074C177.767 22.7773 177.085 21.6737 176.129 20.8435C175.158 20.0067 173.916 19.5566 172.638 19.5779C171.395 19.5659 170.185 19.9883 169.216 20.7732C168.239 21.6023 167.574 22.7439 167.331 24.0074H178.085Z" fill="url(#paint5_linear_60_2)"/>
<path d="M190.095 36.6616C188.811 35.9436 187.785 34.8365 187.162 33.4976C186.385 32.0534 186 30.4287 186.045 28.7869V15.5688H191.701V27.2401C191.701 30.8962 193.168 32.6539 196.03 32.6539C196.64 32.6723 197.246 32.563 197.811 32.333C198.376 32.1031 198.887 31.7575 199.312 31.3181C200.234 30.1708 200.684 28.7113 200.569 27.2401V15.5688H206.225V37.1537H200.779V33.8492C200.328 35.0493 199.493 36.0637 198.405 36.7319C197.162 37.4016 195.762 37.7176 194.355 37.6459C192.871 37.7281 191.395 37.3869 190.095 36.6616Z" fill="url(#paint6_linear_60_2)"/>
<path d="M209.577 15.5691H215.094V19.7173C215.155 18.9063 215.385 18.1174 215.77 17.4025C216.155 16.6875 216.686 16.0627 217.328 15.5691C218.643 14.6875 220.23 14.313 221.797 14.5145V19.858H221.029C220.258 19.8175 219.486 19.9408 218.765 20.2197C218.043 20.4987 217.388 20.9271 216.842 21.4773C216.295 22.0275 215.87 22.6871 215.593 23.4134C215.316 24.1398 215.193 24.9166 215.233 25.6936V36.9431H209.577V15.5691Z" fill="url(#paint7_linear_60_2)"/>
<path d="M221.588 33.8505L225.358 30.3351C225.972 31.1407 226.752 31.8029 227.644 32.2762C228.536 32.7496 229.519 33.0228 230.526 33.0771C231.298 33.1241 232.063 32.9006 232.69 32.4443C232.955 32.2518 233.169 31.9979 233.315 31.7041C233.461 31.4103 233.534 31.0854 233.528 30.7569C233.526 30.4768 233.455 30.2015 233.321 29.956C233.187 29.7105 232.994 29.5025 232.76 29.3507C231.756 28.8066 230.671 28.4268 229.548 28.2258C227.449 27.9625 225.491 27.0256 223.962 25.554C223.051 24.3702 222.582 22.9023 222.635 21.4058C222.605 20.4845 222.784 19.5684 223.159 18.7276C223.534 17.8868 224.096 17.1435 224.8 16.5545C226.537 15.164 228.732 14.4859 230.945 14.6561C232.523 14.6105 234.092 14.8979 235.553 15.4998C236.936 16.1864 238.134 17.1995 239.045 18.4528L234.925 21.6167C234.539 20.8979 233.962 20.3007 233.26 19.8912C232.557 19.4817 231.756 19.2759 230.945 19.2965C230.267 19.2608 229.593 19.4064 228.989 19.7184C228.74 19.8711 228.537 20.0892 228.402 20.3493C228.267 20.6094 228.204 20.9017 228.221 21.1949C228.226 21.4225 228.278 21.6466 228.374 21.8526C228.47 22.0585 228.609 22.2417 228.78 22.3901C229.509 22.8385 230.314 23.1483 231.154 23.3041C233.429 23.7141 235.552 24.7343 237.299 26.2571C237.846 26.8365 238.27 27.5216 238.546 28.2709C238.822 29.0202 238.944 29.8181 238.905 30.6163C238.922 31.8905 238.557 33.1403 237.858 34.2021C237.088 35.3352 236.026 36.2348 234.785 36.8035C233.422 37.411 231.947 37.7224 230.456 37.7175C228.789 37.7487 227.135 37.4196 225.605 36.7526C224.075 36.0855 222.705 35.0959 221.588 33.8505Z" fill="url(#paint8_linear_60_2)"/>
<path d="M241.698 7.62508H251.893C254.389 7.52767 256.846 8.2698 258.876 9.73435C259.692 10.4179 260.343 11.2797 260.778 12.2543C261.214 13.229 261.423 14.2908 261.39 15.3591C261.446 16.6821 261.079 17.9882 260.343 19.0855C259.399 20.2629 258.138 21.1417 256.712 21.6166C258.581 21.9176 260.3 22.8322 261.6 24.2181C262.611 25.5991 263.128 27.2844 263.066 28.9991C263.101 30.5363 262.635 32.0429 261.739 33.2879C260.851 34.573 259.615 35.5738 258.178 36.1706C256.417 36.846 254.546 37.1799 252.662 37.155H241.698V7.62508ZM251.055 19.7886C252.235 19.8972 253.417 19.5997 254.407 18.9449C254.773 18.6251 255.059 18.2228 255.241 17.7706C255.423 17.3185 255.496 16.8295 255.455 16.3434C255.455 14.0232 253.988 12.8983 251.055 12.8983H247.564V19.9292L251.055 19.7886ZM251.893 31.8114C255.245 31.8114 256.851 30.6162 256.851 28.0851C256.883 27.589 256.783 27.0933 256.562 26.6487C256.341 26.2041 256.007 25.8263 255.594 25.5539C254.488 24.8621 253.192 24.542 251.893 24.6399H247.355V31.6708L251.893 31.8114Z" fill="url(#paint9_linear_60_2)"/>
<path d="M265.859 7.69528C266.52 7.06736 267.394 6.71759 268.303 6.71759C269.212 6.71759 270.086 7.06736 270.747 7.69528C271.05 7.99742 271.287 8.35975 271.443 8.7592C271.599 9.15865 271.671 9.58649 271.655 10.0155C271.677 10.4556 271.608 10.8956 271.451 11.3073C271.295 11.7189 271.055 12.0932 270.747 12.406C270.432 12.7346 270.051 12.9921 269.63 13.1618C269.208 13.3315 268.756 13.4094 268.303 13.3903C267.392 13.3958 266.515 13.0426 265.859 12.406C265.548 12.0918 265.301 11.7189 265.134 11.3087C264.966 10.8985 264.88 10.4591 264.881 10.0155C264.878 9.58194 264.962 9.15226 265.131 8.75313C265.299 8.35401 265.547 7.99394 265.859 7.69528ZM265.859 15.2184H271.515V37.1548H265.859V15.2184Z" fill="url(#paint10_linear_60_2)"/>
<path d="M278.917 36.1709C277.257 35.1574 275.885 33.7282 274.937 32.0226C273.976 30.2576 273.495 28.2692 273.54 26.2573C273.529 24.2183 274.034 22.2102 275.006 20.4216C275.959 18.6774 277.358 17.2211 279.056 16.2031C280.795 15.1841 282.771 14.6502 284.782 14.6563C286.795 14.6398 288.774 15.1744 290.508 16.2031C292.167 17.2272 293.518 18.6852 294.419 20.4216C295.4 22.2067 295.905 24.2172 295.885 26.2573C295.957 26.9115 295.957 27.5717 295.885 28.2259H279.406C279.678 29.478 280.338 30.6105 281.291 31.4602C282.275 32.266 283.514 32.69 284.782 32.6554C285.888 32.678 286.977 32.3855 287.925 31.8117C288.807 31.298 289.551 30.5736 290.089 29.7024L294.489 33.007C293.528 34.499 292.174 35.6921 290.578 36.4521C288.768 37.316 286.785 37.749 284.782 37.7177C282.726 37.7319 280.702 37.1982 278.917 36.1709ZM290.159 24.0074C289.842 22.7773 289.16 21.6737 288.204 20.8435C287.233 20.0067 285.991 19.5566 284.713 19.5779C283.469 19.5659 282.26 19.9883 281.291 20.7732C280.314 21.6023 279.648 22.7439 279.406 24.0074H290.159Z" fill="url(#paint11_linear_60_2)"/>
<path d="M298.329 15.57H303.916V18.8042C304.493 17.5606 305.444 16.5314 306.635 15.8626C307.826 15.1937 309.241 15.0778 310.549 15.0778C312 15 313.41 15.0363 314.739 15.57C316.023 16.2879 317.049 17.395 317.672 18.7339C318.449 20.1781 318.834 21.8029 318.789 23.4446V37.1549H313.133V25.1321C313.248 23.6609 312.798 22.2014 311.876 21.0541C311.432 20.6003 310.898 20.2465 310.308 20.0163C309.718 19.786 309.086 19.6844 308.454 19.7183C307.855 19.6919 307.257 19.7977 306.702 20.0285C306.147 20.2592 305.649 20.6093 305.242 21.0541C304.76 21.6092 304.394 22.2563 304.166 22.957C303.938 23.6577 303.853 24.3974 303.916 25.1321V37.1549H298.26L298.329 15.57Z" fill="url(#paint12_linear_60_2)"/>
<path d="M320.395 33.8494L324.235 30.3339C324.841 31.1309 325.61 31.7879 326.489 32.2609C327.368 32.7338 328.338 33.0118 329.333 33.076C330.126 33.1118 330.909 32.89 331.567 32.4432C331.815 32.2396 332.012 31.9816 332.146 31.6892C332.279 31.3967 332.344 31.0774 332.335 30.7558C332.333 30.4756 332.262 30.2004 332.128 29.9549C331.994 29.7094 331.801 29.5014 331.567 29.3496C330.676 28.8281 329.711 28.4486 328.704 28.2247C326.694 27.9373 324.832 26.9996 323.397 25.5529C322.467 24.3758 321.973 22.9089 322.001 21.4047C321.971 20.4834 322.15 19.5673 322.525 18.7265C322.9 17.8857 323.461 17.1423 324.165 16.5533C325.848 15.2131 327.959 14.538 330.101 14.655C331.679 14.6094 333.249 14.8968 334.71 15.4987C336.106 16.1652 337.308 17.1821 338.201 18.4517L334.081 21.6156C333.706 20.918 333.152 20.3347 332.476 19.9265C331.8 19.5184 331.028 19.3004 330.241 19.2954C329.564 19.2693 328.892 19.4143 328.285 19.7172C328.046 19.8801 327.85 20.1003 327.716 20.358C327.582 20.6157 327.514 20.9028 327.517 21.1937C327.522 21.4213 327.574 21.6454 327.67 21.8514C327.766 22.0574 327.904 22.2406 328.076 22.389C328.81 22.8267 329.613 23.1358 330.45 23.303C332.725 23.713 334.848 24.7332 336.595 26.256C337.154 26.8295 337.591 27.512 337.879 28.2615C338.168 29.0111 338.301 29.812 338.271 30.6152C338.296 31.901 337.904 33.1601 337.154 34.2009C336.384 35.3341 335.322 36.2337 334.081 36.8024C332.74 37.4022 331.289 37.7135 329.822 37.7164C328.063 37.8261 326.302 37.5355 324.67 36.866C323.038 36.1966 321.577 35.1655 320.395 33.8494Z" fill="url(#paint13_linear_60_2)"/>
<path d="M1 42.61C1 43.185 1.65482 43.5147 2.11678 43.1724L31.7114 21.2407C31.8926 21.1064 31.998 20.8932 31.9946 20.6677L31.7329 3.36415C31.7243 2.79408 31.0743 2.47287 30.6162 2.81235L1.80914 24.1621C1.30016 24.5393 1 25.1354 1 25.7689V42.61Z" fill="url(#paint14_linear_60_2)"/>
<path d="M57 3.89C57 3.39847 56.6015 3 56.11 3H43.89C43.3985 3 43 3.39847 43 3.89V8.555C43 8.83513 43.1319 9.09892 43.356 9.267L55.72 18.54C56.2474 18.9355 57 18.5592 57 17.9V3.89Z" fill="url(#paint15_linear_60_2)"/>
<path d="M46.1236 13.5184L31.6122 2.33467C31.3571 2.13811 31.0009 2.14089 30.749 2.34141L19.7 11.1352C19.3441 11.4184 19.3486 11.9605 19.7091 12.2378L59.8732 43.1332C60.3335 43.4873 61 43.1592 61 42.5784V28.5485V25.8181C61 25.1931 60.7078 24.604 60.2103 24.2258L46.1236 13.5184Z" fill="url(#paint16_linear_60_2)"/>
<defs>
<linearGradient id="paint0_linear_60_2" x1="91.0088" y1="7.62354" x2="91.0088" y2="37.1534" gradientUnits="userSpaceOnUse">
<stop stop-color="#323232"/>
<stop offset="1"/>
</linearGradient>
<linearGradient id="paint1_linear_60_2" x1="121.968" y1="14.6582" x2="121.968" y2="37.7186" gradientUnits="userSpaceOnUse">
<stop stop-color="#323232"/>
<stop offset="1"/>
</linearGradient>
<linearGradient id="paint2_linear_60_2" x1="138.073" y1="6.70599" x2="138.073" y2="37.1557" gradientUnits="userSpaceOnUse">
<stop stop-color="#323232"/>
<stop offset="1"/>
</linearGradient>
<linearGradient id="paint3_linear_60_2" x1="147.116" y1="6.3584" x2="147.116" y2="37.1538" gradientUnits="userSpaceOnUse">
<stop stop-color="#323232"/>
<stop offset="1"/>
</linearGradient>
<linearGradient id="paint4_linear_60_2" x1="156.123" y1="6.3584" x2="156.123" y2="37.1538" gradientUnits="userSpaceOnUse">
<stop stop-color="#323232"/>
<stop offset="1"/>
</linearGradient>
<linearGradient id="paint5_linear_60_2" x1="172.665" y1="14.6559" x2="172.665" y2="37.7193" gradientUnits="userSpaceOnUse">
<stop stop-color="#323232"/>
<stop offset="1"/>
</linearGradient>
<linearGradient id="paint6_linear_60_2" x1="196.133" y1="15.5688" x2="196.133" y2="37.6579" gradientUnits="userSpaceOnUse">
<stop stop-color="#323232"/>
<stop offset="1"/>
</linearGradient>
<linearGradient id="paint7_linear_60_2" x1="215.687" y1="14.4612" x2="215.687" y2="36.9431" gradientUnits="userSpaceOnUse">
<stop stop-color="#323232"/>
<stop offset="1"/>
</linearGradient>
<linearGradient id="paint8_linear_60_2" x1="230.316" y1="14.6304" x2="230.316" y2="37.7196" gradientUnits="userSpaceOnUse">
<stop stop-color="#323232"/>
<stop offset="1"/>
</linearGradient>
<linearGradient id="paint9_linear_60_2" x1="252.385" y1="7.61658" x2="252.385" y2="37.1563" gradientUnits="userSpaceOnUse">
<stop stop-color="#323232"/>
<stop offset="1"/>
</linearGradient>
<linearGradient id="paint10_linear_60_2" x1="268.27" y1="6.71759" x2="268.27" y2="37.1548" gradientUnits="userSpaceOnUse">
<stop stop-color="#323232"/>
<stop offset="1"/>
</linearGradient>
<linearGradient id="paint11_linear_60_2" x1="284.738" y1="14.6559" x2="284.738" y2="37.7193" gradientUnits="userSpaceOnUse">
<stop stop-color="#323232"/>
<stop offset="1"/>
</linearGradient>
<linearGradient id="paint12_linear_60_2" x1="308.526" y1="14.9896" x2="308.526" y2="37.1549" gradientUnits="userSpaceOnUse">
<stop stop-color="#323232"/>
<stop offset="1"/>
</linearGradient>
<linearGradient id="paint13_linear_60_2" x1="329.335" y1="14.642" x2="329.335" y2="37.739" gradientUnits="userSpaceOnUse">
<stop stop-color="#323232"/>
<stop offset="1"/>
</linearGradient>
<linearGradient id="paint14_linear_60_2" x1="24.232" y1="17.5034" x2="-1.94233" y2="36.4718" gradientUnits="userSpaceOnUse">
<stop stop-color="#7E0F28"/>
<stop offset="1" stop-color="#CA2A4D"/>
</linearGradient>
<linearGradient id="paint15_linear_60_2" x1="49.9626" y1="19.0693" x2="49.9626" y2="3" gradientUnits="userSpaceOnUse">
<stop stop-color="#6C0F23"/>
<stop offset="1" stop-color="#CA2A4D"/>
</linearGradient>
<linearGradient id="paint16_linear_60_2" x1="61.8303" y1="33.8161" x2="28.309" y2="11.5246" gradientUnits="userSpaceOnUse">
<stop stop-color="#680F22"/>
<stop offset="1" stop-color="#CA2A4D"/>
</linearGradient>
</defs>
</svg>
