<svg width="337" height="43" viewBox="0 0 337 43" fill="none" xmlns="http://www.w3.org/2000/svg">
<g clip-path="url(#clip0_48_53)">
<path d="M73.5293 5.62354H80.5121L86.5872 18.6307C88.02 21.1803 89.2572 23.8363 90.2881 26.5757C91.1689 23.8535 92.2423 21.1984 93.5002 18.6307L99.5054 5.62354H106.488V35.1534H100.762V23.2008C100.762 21.3025 100.762 19.6854 100.762 18.4901C100.762 17.2949 100.762 16.0293 100.762 14.6231L91.4752 35.1534H88.6122L78.8362 14.6231C79.1854 15.792 79.1854 17.3805 79.1854 18.6307C79.1854 19.881 79.1854 21.3025 79.1854 23.2008V35.1534H73.5293V5.62354Z" fill="url(#paint0_linear_48_53)"/>
<path d="M114.868 34.1708C113.335 33.1116 112.088 31.6863 111.237 30.0226C110.276 28.2576 109.795 26.2692 109.84 24.2572C109.808 22.2244 110.289 20.2166 111.237 18.4216C112.19 16.6774 113.588 15.2211 115.287 14.203C117.028 13.191 119.002 12.6582 121.013 12.6582C123.023 12.6582 124.998 13.191 126.739 14.203C128.397 15.2272 129.748 16.6851 130.649 18.4216C131.609 20.2121 132.09 22.223 132.045 24.2572C132.118 24.9115 132.118 25.5717 132.045 26.2259H115.357C115.629 27.4779 116.289 28.6105 117.242 29.4601C118.226 30.266 119.465 30.69 120.733 30.6554C121.839 30.678 122.928 30.3855 123.876 29.8117C124.758 29.298 125.501 28.5736 126.04 27.7024L130.439 31.0069C129.463 32.4849 128.113 33.6741 126.529 34.4521C124.717 35.3089 122.735 35.7415 120.733 35.7176C118.676 35.7421 116.649 35.2077 114.868 34.1708ZM126.11 22.0073C125.793 20.7773 125.111 19.6737 124.155 18.8434C123.184 18.0067 121.942 17.5565 120.663 17.5779C119.42 17.5659 118.211 17.9883 117.242 18.7731C116.264 19.6023 115.599 20.7439 115.357 22.0073H126.11Z" fill="url(#paint1_linear_48_53)"/>
<path d="M134.699 5.69608C134.994 5.36146 135.362 5.09895 135.773 4.92842C136.184 4.75788 136.629 4.68379 137.073 4.71175C137.527 4.68812 137.98 4.76389 138.402 4.93383C138.824 5.10376 139.204 5.36383 139.517 5.69608C139.829 5.99474 140.077 6.35481 140.245 6.75394C140.413 7.15307 140.498 7.58274 140.494 8.01629C140.504 8.46102 140.421 8.90285 140.253 9.31417C140.085 9.72549 139.834 10.0975 139.517 10.4068C139.204 10.7391 138.824 10.9991 138.402 11.1691C137.98 11.339 137.527 11.4148 137.073 11.3911C136.631 11.4003 136.192 11.3176 135.784 11.1482C135.375 10.9788 135.006 10.7264 134.699 10.4068C134.365 10.1064 134.099 9.73776 133.918 9.3255C133.738 8.91323 133.647 8.46687 133.651 8.01629C133.648 7.57609 133.739 7.14038 133.92 6.73962C134.101 6.33886 134.367 5.98272 134.699 5.69608ZM134.28 13.5707H139.936V35.1557H134.28V13.5707Z" fill="url(#paint2_linear_48_53)"/>
<path d="M143.288 4.3584H148.944V35.1538H143.288V4.3584Z" fill="url(#paint3_linear_48_53)"/>
<path d="M152.295 4.3584H157.952V35.1538H152.295V4.3584Z" fill="url(#paint4_linear_48_53)"/>
<path d="M165.842 34.1709C164.182 33.1574 162.811 31.7282 161.862 30.0226C160.934 28.2454 160.454 26.2653 160.466 24.2573C160.455 22.2183 160.96 20.2102 161.932 18.4216C162.885 16.6774 164.283 15.2211 165.982 14.2031C167.72 13.1841 169.697 12.6502 171.708 12.6563C173.721 12.6398 175.7 13.1744 177.434 14.2031C179.097 15.2435 180.467 16.6959 181.414 18.4216C182.343 20.224 182.822 22.2268 182.811 24.2573C182.883 24.9115 182.883 25.5717 182.811 26.2259H166.331C166.632 27.4662 167.288 28.5906 168.216 29.4602C169.207 30.2552 170.441 30.6779 171.708 30.6554C172.813 30.678 173.903 30.3855 174.85 29.8117C175.733 29.298 176.476 28.5736 177.015 27.7024L181.414 31.007C180.454 32.499 179.1 33.6921 177.504 34.4521C175.694 35.316 173.711 35.749 171.708 35.7177C169.653 35.722 167.632 35.189 165.842 34.1709ZM177.085 22.0074C176.767 20.7773 176.085 19.6737 175.129 18.8435C174.158 18.0067 172.916 17.5566 171.638 17.5779C170.395 17.5659 169.185 17.9883 168.216 18.7732C167.239 19.6023 166.574 20.7439 166.331 22.0074H177.085Z" fill="url(#paint5_linear_48_53)"/>
<path d="M189.095 34.6616C187.811 33.9436 186.785 32.8365 186.162 31.4976C185.385 30.0534 185 28.4287 185.045 26.7869V13.5688H190.701V25.2401C190.701 28.8962 192.168 30.6539 195.03 30.6539C195.64 30.6723 196.246 30.563 196.811 30.333C197.376 30.1031 197.887 29.7574 198.312 29.3181C199.234 28.1708 199.684 26.7113 199.569 25.2401V13.5688H205.225V35.1537H199.779V31.8492C199.328 33.0493 198.493 34.0637 197.405 34.7319C196.162 35.4016 194.762 35.7176 193.355 35.6459C191.871 35.7281 190.395 35.3869 189.095 34.6616Z" fill="url(#paint6_linear_48_53)"/>
<path d="M208.577 13.5691H214.094V17.7173C214.155 16.9063 214.385 16.1174 214.77 15.4025C215.155 14.6875 215.686 14.0627 216.328 13.5691C217.643 12.6875 219.23 12.313 220.797 12.5145V17.858H220.029C219.258 17.8175 218.486 17.9408 217.765 18.2197C217.043 18.4987 216.388 18.9271 215.842 19.4773C215.295 20.0275 214.87 20.6871 214.593 21.4134C214.316 22.1398 214.193 22.9166 214.233 23.6936V34.9431H208.577V13.5691Z" fill="url(#paint7_linear_48_53)"/>
<path d="M220.588 31.8505L224.358 28.3351C224.972 29.1407 225.752 29.8029 226.644 30.2762C227.536 30.7496 228.519 31.0228 229.526 31.0771C230.298 31.1241 231.063 30.9006 231.69 30.4443C231.955 30.2518 232.169 29.9979 232.315 29.7041C232.461 29.4103 232.534 29.0853 232.528 28.7569C232.526 28.4768 232.455 28.2015 232.321 27.956C232.187 27.7105 231.994 27.5025 231.76 27.3507C230.756 26.8066 229.671 26.4268 228.548 26.2258C226.449 25.9625 224.491 25.0256 222.962 23.554C222.051 22.3702 221.582 20.9023 221.635 19.4058C221.605 18.4845 221.784 17.5684 222.159 16.7276C222.534 15.8868 223.096 15.1435 223.8 14.5545C225.537 13.164 227.732 12.4859 229.945 12.6561C231.523 12.6105 233.092 12.8979 234.553 13.4998C235.936 14.1864 237.134 15.1995 238.045 16.4528L233.925 19.6167C233.539 18.8979 232.962 18.3007 232.26 17.8912C231.557 17.4817 230.756 17.2759 229.945 17.2965C229.267 17.2608 228.593 17.4064 227.989 17.7184C227.74 17.8711 227.537 18.0892 227.402 18.3493C227.267 18.6094 227.204 18.9017 227.221 19.1949C227.226 19.4225 227.278 19.6466 227.374 19.8526C227.47 20.0585 227.609 20.2417 227.78 20.3901C228.509 20.8385 229.314 21.1483 230.154 21.3041C232.429 21.7141 234.552 22.7343 236.299 24.2571C236.846 24.8365 237.27 25.5216 237.546 26.2709C237.822 27.0202 237.944 27.8181 237.905 28.6163C237.922 29.8905 237.557 31.1403 236.858 32.2021C236.088 33.3352 235.026 34.2348 233.785 34.8035C232.422 35.411 230.947 35.7224 229.456 35.7175C227.789 35.7487 226.135 35.4196 224.605 34.7526C223.075 34.0855 221.705 33.0959 220.588 31.8505Z" fill="url(#paint8_linear_48_53)"/>
<path d="M240.698 5.62508H250.893C253.389 5.52767 255.846 6.2698 257.876 7.73435C258.692 8.41786 259.343 9.27969 259.778 10.2543C260.214 11.229 260.423 12.2908 260.39 13.3591C260.446 14.6821 260.079 15.9882 259.343 17.0855C258.399 18.2629 257.138 19.1417 255.712 19.6166C257.581 19.9176 259.3 20.8322 260.6 22.2181C261.611 23.5991 262.128 25.2844 262.066 26.9991C262.101 28.5363 261.635 30.0429 260.739 31.2879C259.851 32.573 258.615 33.5738 257.178 34.1706C255.417 34.846 253.546 35.1799 251.662 35.155H240.698V5.62508ZM250.055 17.7886C251.235 17.8972 252.417 17.5997 253.407 16.9449C253.773 16.6251 254.059 16.2228 254.241 15.7706C254.423 15.3185 254.496 14.8295 254.455 14.3434C254.455 12.0232 252.988 10.8983 250.055 10.8983H246.564V17.9292L250.055 17.7886ZM250.893 29.8114C254.245 29.8114 255.851 28.6162 255.851 26.0851C255.883 25.589 255.783 25.0933 255.562 24.6487C255.341 24.2041 255.007 23.8263 254.594 23.5539C253.488 22.8621 252.192 22.542 250.893 22.6399H246.355V29.6708L250.893 29.8114Z" fill="url(#paint9_linear_48_53)"/>
<path d="M264.859 5.69528C265.52 5.06736 266.394 4.71759 267.303 4.71759C268.212 4.71759 269.086 5.06736 269.747 5.69528C270.05 5.99742 270.287 6.35975 270.443 6.7592C270.599 7.15865 270.671 7.58649 270.655 8.01548C270.677 8.45563 270.608 8.89563 270.451 9.30728C270.295 9.71894 270.055 10.0932 269.747 10.406C269.432 10.7346 269.051 10.9921 268.63 11.1618C268.208 11.3315 267.756 11.4094 267.303 11.3903C266.392 11.3958 265.515 11.0426 264.859 10.406C264.548 10.0918 264.301 9.71892 264.134 9.30873C263.966 8.89854 263.88 8.45908 263.881 8.01548C263.878 7.58194 263.962 7.15226 264.131 6.75313C264.299 6.35401 264.547 5.99394 264.859 5.69528ZM264.859 13.2184H270.515V35.1548H264.859V13.2184Z" fill="url(#paint10_linear_48_53)"/>
<path d="M277.917 34.1709C276.257 33.1574 274.885 31.7282 273.937 30.0226C272.976 28.2576 272.495 26.2692 272.54 24.2573C272.529 22.2183 273.034 20.2102 274.006 18.4216C274.959 16.6774 276.358 15.2211 278.056 14.2031C279.795 13.1841 281.771 12.6502 283.782 12.6563C285.795 12.6398 287.774 13.1744 289.508 14.2031C291.167 15.2272 292.518 16.6852 293.419 18.4216C294.4 20.2067 294.905 22.2172 294.885 24.2573C294.957 24.9115 294.957 25.5717 294.885 26.2259H278.406C278.678 27.478 279.338 28.6105 280.291 29.4602C281.275 30.266 282.514 30.69 283.782 30.6554C284.888 30.678 285.977 30.3855 286.925 29.8117C287.807 29.298 288.551 28.5736 289.089 27.7024L293.489 31.007C292.529 32.499 291.174 33.6921 289.578 34.4521C287.768 35.316 285.785 35.749 283.782 35.7177C281.726 35.7319 279.702 35.1982 277.917 34.1709ZM289.159 22.0074C288.842 20.7773 288.16 19.6737 287.204 18.8435C286.233 18.0067 284.991 17.5566 283.713 17.5779C282.469 17.5659 281.26 17.9883 280.291 18.7732C279.314 19.6023 278.648 20.7439 278.406 22.0074H289.159Z" fill="url(#paint11_linear_48_53)"/>
<path d="M297.329 13.57H302.916V16.8042C303.493 15.5606 304.444 14.5314 305.635 13.8626C306.826 13.1937 308.195 12.9192 309.549 13.0778C310.965 12.8665 312.41 13.0363 313.739 13.57C315.023 14.2879 316.049 15.395 316.672 16.7339C317.449 18.1781 317.834 19.8029 317.789 21.4446V35.1549H312.133V23.1321C312.248 21.6609 311.798 20.2014 310.876 19.0541C310.432 18.6003 309.898 18.2465 309.308 18.0163C308.718 17.786 308.086 17.6844 307.454 17.7183C306.855 17.6919 306.257 17.7977 305.702 18.0285C305.147 18.2592 304.649 18.6093 304.242 19.0541C303.76 19.6092 303.394 20.2563 303.166 20.957C302.938 21.6577 302.853 22.3974 302.916 23.1321V35.1549H297.26L297.329 13.57Z" fill="url(#paint12_linear_48_53)"/>
<path d="M319.395 31.8494L323.235 28.3339C323.841 29.1309 324.61 29.7879 325.489 30.2609C326.368 30.7338 327.338 31.0118 328.333 31.076C329.126 31.1118 329.909 30.89 330.567 30.4432C330.815 30.2396 331.012 29.9816 331.146 29.6892C331.279 29.3967 331.344 29.0774 331.335 28.7558C331.333 28.4756 331.262 28.2004 331.128 27.9549C330.994 27.7094 330.801 27.5014 330.567 27.3496C329.676 26.8281 328.711 26.4486 327.704 26.2247C325.694 25.9373 323.832 24.9996 322.397 23.5529C321.467 22.3758 320.973 20.9089 321.001 19.4047C320.971 18.4834 321.15 17.5673 321.525 16.7265C321.9 15.8857 322.461 15.1423 323.165 14.5533C324.848 13.2131 326.959 12.538 329.101 12.655C330.679 12.6094 332.249 12.8968 333.71 13.4987C335.106 14.1652 336.308 15.1821 337.201 16.4517L333.081 19.6156C332.706 18.918 332.152 18.3347 331.476 17.9265C330.8 17.5184 330.028 17.3004 329.241 17.2954C328.564 17.2693 327.892 17.4143 327.285 17.7172C327.046 17.8801 326.85 18.1003 326.716 18.358C326.582 18.6157 326.514 18.9028 326.517 19.1937C326.522 19.4213 326.574 19.6454 326.67 19.8514C326.766 20.0574 326.904 20.2406 327.076 20.389C327.81 20.8267 328.613 21.1358 329.45 21.303C331.725 21.713 333.848 22.7332 335.595 24.256C336.154 24.8295 336.591 25.512 336.879 26.2615C337.168 27.0111 337.301 27.812 337.271 28.6152C337.296 29.901 336.904 31.1601 336.154 32.2009C335.384 33.3341 334.322 34.2337 333.081 34.8024C331.74 35.4022 330.289 35.7135 328.822 35.7164C327.063 35.8261 325.302 35.5355 323.67 34.866C322.038 34.1966 320.577 33.1655 319.395 31.8494Z" fill="url(#paint13_linear_48_53)"/>
<path d="M0 40.61C0 41.185 0.65482 41.5147 1.11678 41.1724L30.7114 19.2407C30.8926 19.1065 30.998 18.8932 30.9946 18.6677L30.7329 1.36415C30.7243 0.794076 30.0743 0.472868 29.6162 0.812345L0.283199 22.5519C0.105055 22.6839 0 22.8925 0 23.1142V40.61Z" fill="url(#paint14_linear_48_53)"/>
<path d="M56 1.7C56 1.3134 55.6866 1 55.3 1H42.7C42.3134 1 42 1.3134 42 1.7V7.07189C42 7.3032 42.1143 7.51957 42.3053 7.65L54.9053 16.2526C55.3699 16.5698 56 16.2371 56 15.6745V1.7Z" fill="url(#paint15_linear_48_53)"/>
<path d="M45.1236 11.5184L30.6122 0.33467C30.3571 0.138113 30.0009 0.140895 29.749 0.341412L18.7 9.13521C18.3441 9.41843 18.3486 9.96046 18.7091 10.2378L58.8732 41.1332C59.3335 41.4873 60 41.1592 60 40.5784V26.5485V23.1733C60 22.9545 59.8977 22.7484 59.7236 22.616L45.1236 11.5184Z" fill="url(#paint16_linear_48_53)"/>
</g>
<defs>
<linearGradient id="paint0_linear_48_53" x1="90.0088" y1="5.62354" x2="90.0088" y2="35.1534" gradientUnits="userSpaceOnUse">
<stop stop-color="#323232"/>
<stop offset="1"/>
</linearGradient>
<linearGradient id="paint1_linear_48_53" x1="120.968" y1="12.6582" x2="120.968" y2="35.7186" gradientUnits="userSpaceOnUse">
<stop stop-color="#323232"/>
<stop offset="1"/>
</linearGradient>
<linearGradient id="paint2_linear_48_53" x1="137.073" y1="4.70599" x2="137.073" y2="35.1557" gradientUnits="userSpaceOnUse">
<stop stop-color="#323232"/>
<stop offset="1"/>
</linearGradient>
<linearGradient id="paint3_linear_48_53" x1="146.116" y1="4.3584" x2="146.116" y2="35.1538" gradientUnits="userSpaceOnUse">
<stop stop-color="#323232"/>
<stop offset="1"/>
</linearGradient>
<linearGradient id="paint4_linear_48_53" x1="155.123" y1="4.3584" x2="155.123" y2="35.1538" gradientUnits="userSpaceOnUse">
<stop stop-color="#323232"/>
<stop offset="1"/>
</linearGradient>
<linearGradient id="paint5_linear_48_53" x1="171.665" y1="12.6559" x2="171.665" y2="35.7193" gradientUnits="userSpaceOnUse">
<stop stop-color="#323232"/>
<stop offset="1"/>
</linearGradient>
<linearGradient id="paint6_linear_48_53" x1="195.133" y1="13.5688" x2="195.133" y2="35.6579" gradientUnits="userSpaceOnUse">
<stop stop-color="#323232"/>
<stop offset="1"/>
</linearGradient>
<linearGradient id="paint7_linear_48_53" x1="214.687" y1="12.4612" x2="214.687" y2="34.9431" gradientUnits="userSpaceOnUse">
<stop stop-color="#323232"/>
<stop offset="1"/>
</linearGradient>
<linearGradient id="paint8_linear_48_53" x1="229.316" y1="12.6304" x2="229.316" y2="35.7196" gradientUnits="userSpaceOnUse">
<stop stop-color="#323232"/>
<stop offset="1"/>
</linearGradient>
<linearGradient id="paint9_linear_48_53" x1="251.385" y1="5.61658" x2="251.385" y2="35.1563" gradientUnits="userSpaceOnUse">
<stop stop-color="#323232"/>
<stop offset="1"/>
</linearGradient>
<linearGradient id="paint10_linear_48_53" x1="267.27" y1="4.71759" x2="267.27" y2="35.1548" gradientUnits="userSpaceOnUse">
<stop stop-color="#323232"/>
<stop offset="1"/>
</linearGradient>
<linearGradient id="paint11_linear_48_53" x1="283.738" y1="12.6559" x2="283.738" y2="35.7193" gradientUnits="userSpaceOnUse">
<stop stop-color="#323232"/>
<stop offset="1"/>
</linearGradient>
<linearGradient id="paint12_linear_48_53" x1="307.526" y1="12.9896" x2="307.526" y2="35.1549" gradientUnits="userSpaceOnUse">
<stop stop-color="#323232"/>
<stop offset="1"/>
</linearGradient>
<linearGradient id="paint13_linear_48_53" x1="328.335" y1="12.642" x2="328.335" y2="35.739" gradientUnits="userSpaceOnUse">
<stop stop-color="#323232"/>
<stop offset="1"/>
</linearGradient>
<linearGradient id="paint14_linear_48_53" x1="23.232" y1="15.5034" x2="-2.94233" y2="34.4718" gradientUnits="userSpaceOnUse">
<stop stop-color="#632030"/>
<stop offset="1" stop-color="#BB2030"/>
</linearGradient>
<linearGradient id="paint15_linear_48_53" x1="48.9626" y1="17.0693" x2="48.9626" y2="1" gradientUnits="userSpaceOnUse">
<stop stop-color="#3A3A3B"/>
<stop offset="1" stop-color="#BB2030"/>
</linearGradient>
<linearGradient id="paint16_linear_48_53" x1="60.8303" y1="31.8161" x2="27.309" y2="9.52463" gradientUnits="userSpaceOnUse">
<stop stop-color="#53160C"/>
<stop offset="0.24" stop-color="#611913"/>
<stop offset="0.68" stop-color="#852025"/>
<stop offset="1" stop-color="#A32633"/>
</linearGradient>
<clipPath id="clip0_48_53">
<rect width="336.922" height="42.1152" fill="white"/>
</clipPath>
</defs>
</svg>
