<svg width="1440" height="900" viewBox="0 0 1440 900" fill="none" xmlns="http://www.w3.org/2000/svg">
<g clip-path="url(#clip0_51_2)">
<path fill-rule="evenodd" clip-rule="evenodd" d="M1466.7 157.713C1466.7 144.565 1456.03 133.89 1442.88 133.89H414.908C401.76 133.89 391.085 144.565 391.085 157.713V905.837C391.085 918.985 401.76 929.66 414.908 929.66H1442.88C1456.03 929.66 1466.7 918.985 1466.7 905.837V157.713Z" fill="white"/>
<path d="M419.338 177.155C424.818 177.155 429.261 172.712 429.261 167.232C429.261 161.752 424.818 157.309 419.338 157.309C413.857 157.309 409.415 161.752 409.415 167.232C409.415 172.712 413.857 177.155 419.338 177.155Z" fill="#EE6F64"/>
<path d="M447.68 177.155C453.16 177.155 457.603 172.712 457.603 167.232C457.603 161.752 453.16 157.309 447.68 157.309C442.2 157.309 437.757 161.752 437.757 167.232C437.757 172.712 442.2 177.155 447.68 177.155Z" fill="#F7C154"/>
<path d="M477.126 177.155C482.606 177.155 487.049 172.712 487.049 167.232C487.049 161.752 482.606 157.309 477.126 157.309C471.645 157.309 467.203 161.752 467.203 167.232C467.203 172.712 471.645 177.155 477.126 177.155Z" fill="#66C759"/>
<path d="M1440 196.123H391.088V200.322H1440V196.123Z" fill="#EEEFEE"/>
<path d="M1439.99 200.322H391.085V900H1439.99V200.322Z" fill="#F3F4F6"/>
<path d="M1127.97 529.094L1084.44 515.063C1056.59 505.875 1040.28 483.344 1032.63 455.031L1013.47 361.719C1012.97 359.875 1011.75 357.406 1008 357.406C1004.84 357.406 1003.03 359.875 1002.53 361.719L983.375 455.062C975.688 483.375 959.406 505.906 931.563 515.094L888.031 529.125C881.875 531.125 881.781 539.813 887.906 541.906L931.75 557C959.5 566.219 975.688 588.719 983.375 616.906L1002.56 709.187C1003.06 711.031 1004.09 714.344 1008.03 714.344C1012.19 714.344 1013 711.031 1013.5 709.187L1032.69 616.906C1040.38 588.688 1056.56 566.188 1084.31 557L1128.16 541.906C1134.22 539.781 1134.13 531.094 1127.97 529.094Z" fill="#FDD835"/>
<path d="M1132.09 533C1131.41 531.281 1130.06 529.781 1127.97 529.094L1084.44 515.062C1056.59 505.875 1040.28 483.344 1032.63 455.031L1013.47 361.719C1013.19 360.656 1012.19 358.719 1011.03 358.156L1017.22 451.812C1021.81 494.562 1025.75 514.687 1059.88 520.562C1089.19 525.625 1123.09 531.438 1132.09 533Z" fill="#FFEE58"/>
<path d="M1132.19 537.875L1056.69 555.188C1030.09 561.938 1015.44 577.344 1015.44 617.656L1008.03 714.344C1010.56 714.094 1012.62 712.719 1013.5 709.187L1032.69 616.906C1040.37 588.688 1056.56 566.188 1084.31 557L1128.16 541.906C1130.22 541.156 1131.53 539.625 1132.19 537.875Z" fill="#F4B400"/>
<path d="M878.656 610.281C852.625 601.688 850.25 592 845.875 575.656L834.969 537.406C834.312 534.938 827.875 534.938 827.187 537.406L819.781 572.75C815.375 589.031 806 601.969 790 607.25L764.5 618.313C760.969 619.469 760.906 624.469 764.437 625.656L790.125 634.75C806.062 640.031 815.375 652.969 819.812 669.188L827.219 703C827.906 705.469 834.312 705.469 834.969 703L843.656 669.344C848.062 653.031 854.812 640.063 876.469 634.75L900.594 625.656C904.125 624.438 904.094 619.438 900.531 618.281L878.656 610.281Z" fill="#FDD835"/>
<path d="M837.031 575.094C839.687 599.656 841.031 606.469 860.937 611.562L902.406 619.656C901.969 619.062 901.344 618.562 900.5 618.312L878.625 610.281C855.781 602.469 849.469 592.531 845.187 572.656C840.906 552.781 836.344 539.812 836.344 539.812C834.75 535.531 832.469 535.75 832.469 535.75L837.031 575.094Z" fill="#FFEE58"/>
<path d="M837.781 660.844C837.781 637.687 850.438 626.219 870.563 626.219L901.875 624.938C901.875 624.938 900.063 627.344 896.906 628.094L876.469 634.75C859.125 641.719 851.219 645.219 845.844 668.938C845.844 668.938 838.906 696.531 837.594 699.437C835.781 703.5 833.625 704.344 833.625 704.344L837.781 660.844Z" fill="#F4B400"/>
<path d="M934.687 426.937C936.437 426.344 936.375 423.844 934.594 423.344L910.469 416.844C907.987 416.171 905.722 414.868 903.893 413.061C902.064 411.254 900.734 409.004 900.031 406.531L890.531 367.312C890.062 365.406 887.344 365.406 886.875 367.344L877.937 406.406C877.262 408.947 875.922 411.263 874.054 413.114C872.187 414.965 869.86 416.285 867.312 416.937L843.344 423.156C841.562 423.625 841.437 426.125 843.187 426.75L868.469 435.5C873 437.062 876.5 440.75 877.875 445.344L886.906 481.562C887.375 483.437 890.062 483.469 890.531 481.562L899.875 445.219C900.567 442.951 901.79 440.88 903.442 439.179C905.094 437.478 907.128 436.195 909.375 435.437L934.687 426.937Z" fill="#F4B400" stroke="#F4B400" stroke-width="6.25" stroke-miterlimit="10"/>
</g>
<defs>
<clipPath id="clip0_51_2">
<rect width="1440" height="900" fill="white"/>
</clipPath>
</defs>
</svg>
