<svg id="Calque_1" data-name="Calque 1" xmlns="http://www.w3.org/2000/svg" viewBox="0 0 110.49 29.55"><defs><style>.cls-1{fill:none;}.cls-2{fill:#fba1ab;}.cls-3{fill:#ce4f59;fill-rule:evenodd;}</style></defs><path d="M31.86,7.42h9.43v2.9H35.07v3.61h6.09v2.81H35.07v3.88h6.26v2.9H31.86Z"/><path d="M43.42,21.73l2.09-1.91a3.76,3.76,0,0,0,2.81,1.47,1.87,1.87,0,0,0,1.21-.35,1.08,1.08,0,0,0,.44-.89.93.93,0,0,0-.42-.8,6.34,6.34,0,0,0-1.76-.61,5.37,5.37,0,0,1-2.93-1.45,3.58,3.58,0,0,1-.74-2.27,3.31,3.31,0,0,1,1.19-2.64,4.89,4.89,0,0,1,3.27-1,6,6,0,0,1,2.52.46A5.35,5.35,0,0,1,53,13.35l-2.27,1.72a2.4,2.4,0,0,0-2.11-1.29,2,2,0,0,0-1.08.29.89.89,0,0,0-.42.8.84.84,0,0,0,.31.63,3.66,3.66,0,0,0,1.3.52,7.34,7.34,0,0,1,3.37,1.58,3.59,3.59,0,0,1,.3,4.39,4,4,0,0,1-1.67,1.39,5.38,5.38,0,0,1-2.37.51A6.47,6.47,0,0,1,43.42,21.73Z"/><path d="M57,22.62a3.81,3.81,0,0,1-.92-2.8V14.2H54.4V11.56h1.67V9.15l3.11-.33v2.74h2.53V14.2H59.18v5.46c0,.73.32,1.1,1,1.1h1.28v2.76h-1.7A3.79,3.79,0,0,1,57,22.62Z"/><path d="M64.11,7.44a1.93,1.93,0,0,1,2.66,0,1.87,1.87,0,1,1-2.66,2.63,1.82,1.82,0,0,1,0-2.57V7.44Zm-.25,4.12H67v12H63.86Z"/><path d="M70,11.56h3.06v1.75a3.66,3.66,0,0,1,3.65-2A4.47,4.47,0,0,1,79,11.9a4,4,0,0,1,1.6,1.67,4.35,4.35,0,0,1,1.58-1.69,4.73,4.73,0,0,1,2.47-.57,4.47,4.47,0,0,1,2.32.61,4.27,4.27,0,0,1,1.64,1.73,5.41,5.41,0,0,1,.59,2.59v7.31h-3.1V17a3.33,3.33,0,0,0-.65-2.24A2.21,2.21,0,0,0,83.7,14a2.39,2.39,0,0,0-1.81.66A3.41,3.41,0,0,0,81.26,17v6.55H78.15V17a3.18,3.18,0,0,0-.69-2.24A2.45,2.45,0,0,0,75.58,14a2.34,2.34,0,0,0-1.77.75A3.09,3.09,0,0,0,73.09,17v6.55H70Z"/><path d="M92.29,7.44a1.92,1.92,0,0,1,2.65,0,1.75,1.75,0,0,1,.53,1.29,1.81,1.81,0,0,1-1.78,1.84h-.08A1.79,1.79,0,0,1,92.28,7.5V7.44Zm-.22,4.12h3.1v12h-3.1Z"/><path d="M100.86,23a6.09,6.09,0,0,1-2.28-2.28,6.17,6.17,0,0,1-.83-3.14,6.34,6.34,0,0,1,.83-3.15,6.11,6.11,0,0,1,2.28-2.29,6.77,6.77,0,0,1,6.53,0,6.31,6.31,0,0,1,0,10.86A6.77,6.77,0,0,1,100.86,23Zm.4-3.69a3.12,3.12,0,0,0,1.15,1.24,3.41,3.41,0,0,0,3.42,0A3.12,3.12,0,0,0,107,19.29a3.59,3.59,0,0,0,.41-1.73,3.45,3.45,0,0,0-.42-1.72,3.24,3.24,0,0,0-1.15-1.26,3.29,3.29,0,0,0-3.4,0,3.4,3.4,0,0,0-1.15,1.26,3.55,3.55,0,0,0-.41,1.72,3.81,3.81,0,0,0,.35,1.73Z"/><rect class="cls-1" width="29.55" height="29.55"/><path class="cls-2" d="M7.39,11.08v7.44a3.69,3.69,0,0,0,3.69,3.69h7.39v1a2.42,2.42,0,0,1-2.12,2.69h0a2.71,2.71,0,0,1-.57,0H6.38a2.42,2.42,0,0,1-2.69-2.12h0a2.72,2.72,0,0,1,0-.57V13.77a2.42,2.42,0,0,1,2.12-2.69h0a2.71,2.71,0,0,1,.57,0ZM20.93,19.7V12.31a3.7,3.7,0,0,0-3.7-3.69H9.85v-1a2.42,2.42,0,0,1,2.09-2.69,2.91,2.91,0,0,1,.59,0h9.41A2.41,2.41,0,0,1,24.62,7a2.71,2.71,0,0,1,0,.57V17a2.42,2.42,0,0,1-2.09,2.69,2.91,2.91,0,0,1-.59,0Z"/><path class="cls-3" d="M11.42,11.08H16.9a1.41,1.41,0,0,1,1.57,1.23h0a1.93,1.93,0,0,1,0,.34v5.48a1.41,1.41,0,0,1-1.23,1.57h0a1.93,1.93,0,0,1-.34,0H11.42a1.41,1.41,0,0,1-1.57-1.23h0a1.93,1.93,0,0,1,0-.34V12.65a1.41,1.41,0,0,1,1.23-1.57h.34Z"/></svg>