<svg width="64" height="64" viewBox="0 0 64 64" fill="none" xmlns="http://www.w3.org/2000/svg">
<path d="M2 51.2092C2 51.9425 2.83956 52.3588 3.4233 51.915L31.5579 30.5215C31.9366 30.2336 32.0205 29.698 31.7481 29.308L24.029 18.2574C23.7404 17.8442 23.1659 17.7544 22.765 18.0597L2.78828 33.2728C2.29157 33.6511 2 34.2396 2 34.864V51.2092Z" fill="url(#paint0_linear_60_22)"/>
<path d="M57.0889 13.1571C57.0919 12.6653 56.6941 12.2651 56.2023 12.2651H44.9928C44.5032 12.2651 44.1062 12.6621 44.1062 13.1518V17.7692C44.1062 18.0464 44.2359 18.3077 44.4566 18.4753L55.5878 26.9277C56.1697 27.3695 57.0062 26.9574 57.0106 26.2268L57.0889 13.1571Z" fill="url(#paint1_linear_60_22)"/>
<path d="M46.9692 22.601L32.225 11.4159C31.9024 11.1712 31.4549 11.1761 31.1378 11.4279L20.1609 20.1436C19.8036 20.4273 19.8088 20.9714 20.1714 21.2482L60.4878 52.0276C61.0713 52.4731 61.9124 52.057 61.9124 51.3228V37.6472V34.9814C61.9124 34.3574 61.6211 33.7691 61.1248 33.3908L46.9692 22.601Z" fill="url(#paint2_linear_60_22)"/>
<defs>
<linearGradient id="paint0_linear_60_22" x1="24.6942" y1="26.4907" x2="-1.33076" y2="44.8134" gradientUnits="userSpaceOnUse">
<stop stop-color="white" stop-opacity="0.8"/>
<stop offset="1" stop-color="white"/>
</linearGradient>
<linearGradient id="paint1_linear_60_22" x1="44.1149" y1="25.038" x2="50.6002" y2="12.1948" gradientUnits="userSpaceOnUse">
<stop offset="0.01" stop-color="white"/>
<stop offset="1" stop-color="white" stop-opacity="0.8"/>
</linearGradient>
<linearGradient id="paint2_linear_60_22" x1="32.8449" y1="22.8634" x2="62.5035" y2="44.2176" gradientUnits="userSpaceOnUse">
<stop stop-color="white"/>
<stop offset="0.99" stop-color="white" stop-opacity="0.8"/>
</linearGradient>
</defs>
</svg>
